<svg xmlns="http://www.w3.org/2000/svg" viewBox="0 0 48 48" width="48" height="48">
  <defs>
    <linearGradient id="logoGradient" x1="0%" y1="0%" x2="100%" y2="100%">
      <stop offset="0%" style="stop-color:#E4002B;stop-opacity:1" />
      <stop offset="100%" style="stop-color:#FF6B4A;stop-opacity:1" />
    </linearGradient>
  </defs>
  <!-- Cloud shape -->
  <path fill="url(#logoGradient)" d="M38 20c0-4.4-3.6-8-8-8-1.2 0-2.3.3-3.3.7C25.1 9.6 22 7 18 7c-5 0-9 4-9 9 0 .3 0 .6.1.9C5.9 18.1 3 21.5 3 25.5 3 30.2 6.8 34 11.5 34h25c4.1 0 7.5-3.4 7.5-7.5 0-3.6-2.5-6.6-6-7.3V20z"/>
  <!-- XC text -->
  <text x="24" y="27" text-anchor="middle" fill="white" font-family="Inter, sans-serif" font-weight="700" font-size="12">XC</text>
</svg>
